<svg xmlns="http://www.w3.org/2000/svg" xmlns:xlink="http://www.w3.org/1999/xlink" viewBox="0 0 619.23 81.99"><defs><style>.cls-1{fill:url(#linear-gradient);}.cls-2{fill:url(#linear-gradient-2);}.cls-3{fill:url(#linear-gradient-3);}.cls-4{fill:url(#linear-gradient-4);}.cls-5{fill:url(#linear-gradient-5);}.cls-6{fill:url(#linear-gradient-6);}.cls-7{fill:url(#linear-gradient-7);}.cls-8{fill:url(#linear-gradient-8);}.cls-9{fill:url(#linear-gradient-9);}.cls-10{fill:url(#linear-gradient-10);}.cls-11{fill:url(#linear-gradient-11);}.cls-12{fill:url(#linear-gradient-12);}.cls-13{fill:url(#linear-gradient-13);}.cls-14{fill:url(#linear-gradient-14);}.cls-15{fill:url(#linear-gradient-15);}.cls-16{fill:url(#linear-gradient-16);}.cls-17{fill:url(#linear-gradient-17);}.cls-18{fill:url(#linear-gradient-18);}.cls-19{fill:url(#linear-gradient-19);}.cls-20{fill:url(#linear-gradient-20);}.cls-21{fill:url(#linear-gradient-21);}.cls-22{fill:url(#linear-gradient-22);}.cls-23{fill:url(#linear-gradient-23);}.cls-24{fill:url(#linear-gradient-24);}</style><linearGradient id="linear-gradient" x1="17.87" y1="40.36" x2="102.47" y2="40.36" gradientUnits="userSpaceOnUse"><stop offset="0" stop-color="#e9cba3"/><stop offset="0.15" stop-color="#edddbc"/><stop offset="0.43" stop-color="#c9a885"/><stop offset="0.59" stop-color="#997a60"/><stop offset="0.73" stop-color="#c9a885"/><stop offset="0.93" stop-color="#edddbc"/><stop offset="1" stop-color="#e9cea8"/></linearGradient><linearGradient id="linear-gradient-2" x1="100.71" y1="45.81" x2="123.89" y2="45.81" xlink:href="#linear-gradient"/><linearGradient id="linear-gradient-3" x1="124.66" y1="43.5" x2="144.68" y2="43.5" xlink:href="#linear-gradient"/><linearGradient id="linear-gradient-4" x1="145.34" y1="44.46" x2="166.9" y2="44.46" xlink:href="#linear-gradient"/><linearGradient id="linear-gradient-5" x1="163.99" y1="44.3" x2="204.18" y2="44.3" xlink:href="#linear-gradient"/><linearGradient id="linear-gradient-6" x1="201.61" y1="44.34" x2="215.82" y2="44.34" xlink:href="#linear-gradient"/><linearGradient id="linear-gradient-7" x1="217.35" y1="43.56" x2="238.38" y2="43.56" xlink:href="#linear-gradient"/><linearGradient id="linear-gradient-8" x1="250.07" y1="44.46" x2="271.62" y2="44.46" xlink:href="#linear-gradient"/><linearGradient id="linear-gradient-9" x1="267.58" y1="37.45" x2="283.41" y2="37.45" xlink:href="#linear-gradient"/><linearGradient id="linear-gradient-10" x1="295.17" y1="43.56" x2="316.19" y2="43.56" xlink:href="#linear-gradient"/><linearGradient id="linear-gradient-11" x1="312.95" y1="39.47" x2="327.15" y2="39.47" xlink:href="#linear-gradient"/><linearGradient id="linear-gradient-12" x1="332.68" y1="53.06" x2="360.22" y2="53.06" xlink:href="#linear-gradient"/><linearGradient id="linear-gradient-13" x1="359.78" y1="45.81" x2="382.96" y2="45.81" xlink:href="#linear-gradient"/><linearGradient id="linear-gradient-14" x1="383.73" y1="43.5" x2="403.75" y2="43.5" xlink:href="#linear-gradient"/><linearGradient id="linear-gradient-15" x1="403.23" y1="45.81" x2="426.41" y2="45.81" xlink:href="#linear-gradient"/><linearGradient id="linear-gradient-16" x1="442.2" y1="43.56" x2="463.23" y2="43.56" xlink:href="#linear-gradient"/><linearGradient id="linear-gradient-17" x1="458.63" y1="39.08" x2="471.34" y2="39.08" xlink:href="#linear-gradient"/><linearGradient id="linear-gradient-18" x1="469.59" y1="44.46" x2="491.15" y2="44.46" xlink:href="#linear-gradient"/><linearGradient id="linear-gradient-19" x1="488.24" y1="44.3" x2="528.43" y2="44.3" xlink:href="#linear-gradient"/><linearGradient id="linear-gradient-20" x1="521.47" y1="53.06" x2="549.01" y2="53.06" xlink:href="#linear-gradient"/><linearGradient id="linear-gradient-21" x1="548.94" y1="43.5" x2="568.97" y2="43.5" xlink:href="#linear-gradient"/><linearGradient id="linear-gradient-22" x1="569.63" y1="44.46" x2="591.19" y2="44.46" xlink:href="#linear-gradient"/><linearGradient id="linear-gradient-23" x1="601.41" y1="45.37" x2="619.23" y2="45.37" xlink:href="#linear-gradient"/><linearGradient id="linear-gradient-24" x1="-12.35" y1="200.42" x2="5.38" y2="200.42" gradientTransform="matrix(0.99, 0.12, 0.12, -0.99, -14.21, 244.41)" xlink:href="#linear-gradient"/></defs><g id="Layer_2" data-name="Layer 2"><g id="Layer_1-2" data-name="Layer 1"><path class="cls-1" d="M90.65,6a27.33,27.33,0,0,1,9.44,10.8,19.86,19.86,0,0,1,2.06,6.81,46.21,46.21,0,0,1,.29,7.24c0,1.05-.12,2-.22,2.95a23.81,23.81,0,0,1-.46,2.81c-.21.94-.47,2-.78,3s-.67,2.3-1.1,3.62c-.52,1.51-1,2.88-1.53,4.08a28,28,0,0,1-1.7,3.48q-1,1.66-2.13,3.3t-2.66,3.41q-2.62,3.12-6,6.6a56.71,56.71,0,0,1-7.95,6.68,58.09,58.09,0,0,1-10.51,5.75,59.3,59.3,0,0,1-13.7,3.83c-.76.1-1.88.18-3.37.25s-2.93.11-4.3.11a33.39,33.39,0,0,1-5-.32,15.34,15.34,0,0,1-3.51-.93A12,12,0,0,1,35,78.1a16.44,16.44,0,0,1-1.92-1.63,15.53,15.53,0,0,1-3.44-4.72,10,10,0,0,1-1-3.73,11.61,11.61,0,0,1,.17-1.81c.12-.69.28-1.4.47-2.13A16.63,16.63,0,0,1,30,62a14.72,14.72,0,0,1,.82-1.77,19.69,19.69,0,0,1,2.09-2.81c.92-1.06,1.93-2.13,3-3.19a38.45,38.45,0,0,1,3.37-3,28.22,28.22,0,0,1,3.09-2.13c1-.61,1.51-1.09,1.56-1.42.19-.9.38-1.84.57-2.84.14-.85.31-1.78.5-2.8s.38-2,.56-3.09q.64-3.84,1.14-6.28c.33-1.64.68-3.1,1-4.41s.75-2.56,1.17-3.79L50.46,20c.19-.47.47-1.06.82-1.77s.73-1.42,1.14-2.13.8-1.35,1.2-1.92a10.72,10.72,0,0,1,1-1.21,2.89,2.89,0,0,1,.68-.49c.26-.15.48-.26.67-.36s.54-.09.64,0a3.66,3.66,0,0,1,.43.78,3.16,3.16,0,0,1,.32,1,6.11,6.11,0,0,1,.1,1,25.94,25.94,0,0,1-.21,2.8c-.14,1.21-.34,2.54-.6,4s-.54,3-.82,4.54-.56,3.08-.82,4.48-.51,2.62-.74,3.69-.41,1.81-.5,2.24c-.14.61-.3,1.36-.46,2.23s-.33,1.74-.5,2.59-.29,1.63-.39,2.31a13.76,13.76,0,0,0-.14,1.39c0,.14.15.25.46.32a7.82,7.82,0,0,0,1.17.14,13,13,0,0,1,1.53.17,7.39,7.39,0,0,1,1.6.5,7.49,7.49,0,0,1,1.06.57l1.07.68a4.62,4.62,0,0,1,.78.6c.19.19.26.31.21.35s-.13.12-.25.07a.81.81,0,0,1-.32-.21A4.87,4.87,0,0,0,57.21,48a13.58,13.58,0,0,0-3.84.42,10.39,10.39,0,0,0-1.41.5,4.21,4.21,0,0,0-.15,1.14c0,.71-.1,1.55-.17,2.52s-.16,2-.25,3.08-.19,2.06-.29,2.92c-.23,2.27-.41,4.08-.53,5.43s-.25,2.39-.39,3.12a3.18,3.18,0,0,1-.57,1.49,2.41,2.41,0,0,1-1.13.61,9.2,9.2,0,0,1-2.38.28,3.72,3.72,0,0,1-1.67-.21,4.1,4.1,0,0,1-1.53-2.7,39.21,39.21,0,0,1-.46-6.32V59.21c0-.52,0-1.09,0-1.7s0-1.18.07-1.7a5.39,5.39,0,0,1,.1-1q.08-.57,0-.57c-.19,0-.56.25-1.13.75s-1.2,1.1-1.88,1.81-1.34,1.43-2,2.17-1.09,1.33-1.42,1.81a24.1,24.1,0,0,0-2,3.4,27.11,27.11,0,0,0-1.39,3.48,15.91,15.91,0,0,0-.67,3.13,5,5,0,0,0,.21,2.34,2.43,2.43,0,0,0,1,1,7.8,7.8,0,0,0,1.92.86,23.42,23.42,0,0,0,2.52.6,15.46,15.46,0,0,0,2.81.25,51.06,51.06,0,0,0,12.74-1.71,78.73,78.73,0,0,0,12.82-4.47,79,79,0,0,0,11.46-6.28,49.44,49.44,0,0,0,8.7-7.14,36.51,36.51,0,0,0,3.44-4.33q1.89-2.7,3.66-5.68c1.18-2,2.24-3.94,3.16-5.86a30.62,30.62,0,0,0,1.95-4.93A54,54,0,0,0,100,29.54a30.83,30.83,0,0,0,.46-5,18.09,18.09,0,0,0-2.2-9.06,19.66,19.66,0,0,0-6-6.49,29.66,29.66,0,0,0-8.84-4A45.51,45.51,0,0,0,72.69,3.27,60.51,60.51,0,0,0,61,4,62.84,62.84,0,0,0,49.4,6.89a43.43,43.43,0,0,0-4.94,2.16C42.64,10,40.82,11,39,12a57.12,57.12,0,0,0-5.08,3.3,45.28,45.28,0,0,0-3.83,3.05c-.43.43-1,1-1.71,1.63a30,30,0,0,0-2.3,2.45,40.46,40.46,0,0,0-2.52,3.3A31,31,0,0,0,21.14,30a15.62,15.62,0,0,1-1.28,2.31c-.33.45-.59.67-.78.67s-.21-.11-.35-.35a4.16,4.16,0,0,1-.39-.82,8.22,8.22,0,0,1-.32-1,3.64,3.64,0,0,1-.15-1,9.89,9.89,0,0,1,1.92-5,35,35,0,0,1,5.4-6.28A68,68,0,0,1,33.5,12a72.12,72.12,0,0,1,23-10.29A55.22,55.22,0,0,1,70.06,0a39.84,39.84,0,0,1,9.51,1.24,44,44,0,0,1,5.54,1.81A31.63,31.63,0,0,1,90.65,6Z"/><path class="cls-2" d="M100.91,51.62q-.89-3.84,2.16-10a22.15,22.15,0,0,1,4.23-6.07A13.1,13.1,0,0,1,112,32.45a9.3,9.3,0,0,1,4.72-.46A10.22,10.22,0,0,1,121,33.73a4.41,4.41,0,0,1-.71.28,1.25,1.25,0,0,1-.54,0,2.33,2.33,0,0,1-.64-.21c-.26-.12-.6-.29-1-.53A34.9,34.9,0,0,0,115,37.84q-1.56,2.7-2.8,5.33t-2,4.61a10.38,10.38,0,0,0-.78,2.49c0,.19.24,0,.71-.64s1.09-1.46,1.85-2.52,1.58-2.25,2.48-3.55,1.79-2.52,2.67-3.66a34.69,34.69,0,0,1,2.41-2.84c.73-.75,1.29-1.13,1.67-1.13a2.35,2.35,0,0,1,2.48,1.63,8.25,8.25,0,0,1,.15,3.19c-.15,1.38-.36,2.9-.64,4.58s-.6,3.45-.93,5.29-.56,3.62-.71,5.33q-.14,1.27-.21,2.31a5.83,5.83,0,0,1-.14,1.17c-.05.14-.25.23-.6.28a6.43,6.43,0,0,1-1.18,0,10.53,10.53,0,0,1-1.31-.18,3.38,3.38,0,0,1-1-.36,4,4,0,0,1-1.56-2.3,11.47,11.47,0,0,1-.39-3.34,28.61,28.61,0,0,1,.32-3.73c.19-1.28.4-2.41.64-3.41.09-.56.17-1,.25-1.45a5.83,5.83,0,0,0,.1-.75,7,7,0,0,0-.57.85,8.3,8.3,0,0,0-.56,1c-.19.38-.41.76-.64,1.13q-1.43,2.43-2.45,3.91c-.69,1-1.27,1.79-1.74,2.38s-.89,1.06-1.24,1.42-.7.67-1,1l-1.78-.14C103.33,55.55,101.5,54.17,100.91,51.62Z"/><path class="cls-3" d="M129.27,55.24a4.9,4.9,0,0,1-1.35,0,2.56,2.56,0,0,1-1.06-.46,5.86,5.86,0,0,1-1-1q-.54-.64-1.17-1.56c0-1.14.09-2.28.14-3.41a30.08,30.08,0,0,1,.35-3.41,23.59,23.59,0,0,1,.89-3.52,19,19,0,0,1,1.81-3.79,14.16,14.16,0,0,1,2-2.84,2.41,2.41,0,0,1,1.74-.64,5.21,5.21,0,0,1,1.42.14,1,1,0,0,1,.68.74,7.69,7.69,0,0,1,.21,1.85c0,.83.06,2,.11,3.52q1.35-2.49,2.7-4.48a20.46,20.46,0,0,1,1.91-2.55,6.62,6.62,0,0,1,2-1.49,4.37,4.37,0,0,1,1.71-.57l.31,0,.47.11a2.7,2.7,0,0,1,.95.5,1.89,1.89,0,0,1,.5.95,8.18,8.18,0,0,1,.18,2v3.48c-.05,1.65-.1,3-.14,4a4.57,4.57,0,0,1-.22,1.64,1.12,1.12,0,0,1-.88.31,7.38,7.38,0,0,1-1.46-.07,8.07,8.07,0,0,1-1.53-.35,2.33,2.33,0,0,1-1-.6,2.72,2.72,0,0,1-.56-1.67,12.53,12.53,0,0,1,.07-2.35,19,19,0,0,1,.42-2.41c.19-.78.36-1.43.5-2a31,31,0,0,0-3,4,48.45,48.45,0,0,0-2.42,4.26c-.28.57-.51,1.06-.67,1.46s-.31.78-.43,1.14a7.17,7.17,0,0,0-.28,1.17c-.07.42-.13,1-.18,1.63a24.53,24.53,0,0,1-.74,3.73,4.08,4.08,0,0,1-1.1,2,1.36,1.36,0,0,1-.64.25C130,55.06,129.65,55.14,129.27,55.24Z"/><path class="cls-4" d="M151.14,51.33A8.48,8.48,0,0,1,147,49.2a5.38,5.38,0,0,1-1.56-3.05,6.22,6.22,0,0,1,.53-3.34,9.75,9.75,0,0,1,5.26-5.07,6.87,6.87,0,0,1,3.72-.46,2.7,2.7,0,0,1,2.45,1.45,4.1,4.1,0,0,1,.07,2.84,10.82,10.82,0,0,1-4.5,5.79,2.72,2.72,0,0,0-1.21,1.06,1.34,1.34,0,0,0,.21,1.21.74.74,0,0,0,.53.35,5.27,5.27,0,0,0,1.25-.35l1.24-.5c.45-.19.81-.35,1.1-.49s.82-.49,1.45-.89,1.32-.85,2-1.35l2.13-1.53a21.34,21.34,0,0,0,1.77-1.42,20,20,0,0,1,2.31-1.74.75.75,0,0,1,1,0,.58.58,0,0,1,.21.35c0,.29-.41.87-1.24,1.74s-1.82,1.84-3,2.88a44.17,44.17,0,0,1-3.55,2.87,13.31,13.31,0,0,1-2.95,1.74,6.66,6.66,0,0,1-2.52.39A9.48,9.48,0,0,1,151.14,51.33Zm3.48-12.14a12.94,12.94,0,0,0-1,1.42,9.1,9.1,0,0,0-.67,1.32,15.82,15.82,0,0,0-.54,1.49c-.16.54-.34,1.17-.53,1.88.43-.38,1-.9,1.6-1.56A9.41,9.41,0,0,0,155,41.68a4.85,4.85,0,0,0,.86-2.59q-.15-.75-.36-.75C155.33,38.34,155,38.62,154.62,39.19Z"/><path class="cls-5" d="M167.19,55.52a3.35,3.35,0,0,1-2.45-1.74,6.22,6.22,0,0,1-.75-3c0-.52,0-1.2.11-2s.17-1.71.32-2.66.33-1.91.56-2.88a16.22,16.22,0,0,1,.93-2.73c.66-1.56,1.23-2.84,1.7-3.83A12,12,0,0,1,169,34.33a4.38,4.38,0,0,1,1.24-1.14,3,3,0,0,1,1.39-.32c1.51,0,2.48.52,2.91,1.57a6,6,0,0,1,0,2.27c-.11,1.13-.26,2.33-.42,3.58s-.44,2.88-.82,4.87c0,0,.08,0,.25-.25l.57-.75.57-.78A2.48,2.48,0,0,1,175,43a23.58,23.58,0,0,1,3.76-4.69A4.53,4.53,0,0,1,181.67,37a3,3,0,0,1,2.66,1,4.85,4.85,0,0,1,.75,2.45,12.58,12.58,0,0,1-.22,2.91,13.46,13.46,0,0,0-.28,2.41v.08a.06.06,0,0,0,.07.07c.1,0,.43-.36,1-1.07a42,42,0,0,1,2.92-3.12c.47-.47.84-.85,1.1-1.14a4.34,4.34,0,0,1,.71-.64,1.51,1.51,0,0,1,.6-.25,7,7,0,0,1,.71,0,3.63,3.63,0,0,1,3.41,1.56,2.34,2.34,0,0,1,.28.82c0,.31.08.7.11,1.17s0,1.09,0,1.84V48a24.46,24.46,0,0,0,2.28-1.71l2.52-2.13c.82-.71,1.55-1.31,2.16-1.81a3,3,0,0,1,1.21-.74c.24,0,.4.14.5.42s-.23.62-.82,1.28-1.28,1.38-2.06,2.17-1.57,1.51-2.38,2.2A10.74,10.74,0,0,1,197.15,49a6.11,6.11,0,0,1-2.49.57,4.79,4.79,0,0,1-2.62-.68,5.9,5.9,0,0,1-1.67-1.52,4.92,4.92,0,0,1-.82-1.74,2.57,2.57,0,0,1-.07-1.32c.09-.33,0-.34-.25,0s-1,1.27-2.17,2.87c-.94,1.28-1.69,2.25-2.23,2.92a7.15,7.15,0,0,1-1.35,1.34,1.83,1.83,0,0,1-1,.36h-1.18a7.83,7.83,0,0,1-2.52-.32,3,3,0,0,1-1.52-1.31,3.6,3.6,0,0,1-.54-1.14,11.39,11.39,0,0,1-.1-1.92,9.1,9.1,0,0,0-.07-1.77q-.15,0-.78,1.17c-.43.78-.92,1.68-1.46,2.7s-1,2-1.49,3-.75,1.62-.89,2c-.33.95-.68,1.45-1.06,1.49a6.85,6.85,0,0,1-1.64.15A9.83,9.83,0,0,1,167.19,55.52Z"/><path class="cls-6" d="M206.87,52.9a6.74,6.74,0,0,1-3-1.46A5.29,5.29,0,0,1,202,48.85a10.86,10.86,0,0,1-.36-3.59,12.71,12.71,0,0,1,1-4.4,9.6,9.6,0,0,1,2.73-3.73,7.12,7.12,0,0,1,4.9-1.49,9.61,9.61,0,0,1,3.52.61,3,3,0,0,1,1.59,1.45,16.89,16.89,0,0,1,.39,2.45c.07.83.11,1.61.11,2.34a16.13,16.13,0,0,1-.11,2c-.07.56-.13,1-.17,1.27a27.14,27.14,0,0,1-.89,3.45,8.13,8.13,0,0,1-1.07,2.13,3.46,3.46,0,0,1-1.45,1.17,6.52,6.52,0,0,1-2.13.43,11.14,11.14,0,0,1-1.74.14A5.55,5.55,0,0,1,206.87,52.9Zm4-4.62c.05.95.15,1.46.32,1.53s.58-.54,1.24-1.81a12.2,12.2,0,0,0,1-3.2,14.56,14.56,0,0,0,.21-3.69,7.5,7.5,0,0,0-.5-2.81,3.43,3.43,0,0,0-.49-.88c-.1,0-.25.38-.47,1.13s-.42,1.68-.63,2.77-.39,2.26-.54,3.52A21.78,21.78,0,0,0,210.92,48.28Z"/><path class="cls-7" d="M223.06,52.9a6.06,6.06,0,0,0-.78-2c-.52-1-1.11-2.15-1.77-3.41s-1.29-2.5-1.89-3.76a14.46,14.46,0,0,1-1.1-3,8,8,0,0,1,.75-5.39,11.56,11.56,0,0,1,3.66-4.23A12.52,12.52,0,0,1,227.1,29a8.36,8.36,0,0,1,5.28.71,5.32,5.32,0,0,1,1.87,1.49,4.52,4.52,0,0,1,.46,2.34,6.82,6.82,0,0,1-.45,2.7,3.3,3.3,0,0,1-1,1.35,1.16,1.16,0,0,1-.94.25.54.54,0,0,1-.41-.61,9.35,9.35,0,0,1,.1-1.13c.07-.52.15-1.09.22-1.71a12.23,12.23,0,0,0,.07-1.81A4.22,4.22,0,0,0,232,31a2.26,2.26,0,0,0-.57-.86c-.19-.14-.43-.1-.71.11a5.87,5.87,0,0,0-1.06,1.24c-.43.62-1,1.45-1.64,2.49s-1,1.73-1.35,2.34a12.74,12.74,0,0,0-.78,1.74,6.46,6.46,0,0,0-.35,1.67c-.05.57-.07,1.25-.07,2.06s0,1.43,0,1.88a8.41,8.41,0,0,0,.21,1.42c.12.5.3,1.09.54,1.78s.56,1.62,1,2.8l4.89-4.12c1.29-1.09,2.32-1.95,3.1-2.59s1.36-1.09,1.74-1.35a1.79,1.79,0,0,1,.85-.39c.43,0,.6.13.53.39a2.84,2.84,0,0,1-.81,1.07l-1.81,1.7q-1.11,1-2.37,2.31-2,2.06-3.31,3.23c-.84.78-1.5,1.41-2,1.88a7.41,7.41,0,0,0-1,1.24,4.11,4.11,0,0,0-.46,1.25,6.4,6.4,0,0,1-1.24,2.91,3.35,3.35,0,0,1-2.73,1.06,1.85,1.85,0,0,1-1.5-.46,1.65,1.65,0,0,1-.35-.6,1.92,1.92,0,0,1,.35-.78l.79-1.25c.28-.45.54-.88.78-1.31A2.39,2.39,0,0,0,223.06,52.9Z"/><path class="cls-8" d="M255.86,51.33a8.48,8.48,0,0,1-4.19-2.13,5.44,5.44,0,0,1-1.56-3.05,6.31,6.31,0,0,1,.53-3.34,9.51,9.51,0,0,1,2.1-3,9.65,9.65,0,0,1,3.16-2.06,6.92,6.92,0,0,1,3.73-.46,2.73,2.73,0,0,1,2.45,1.45,4.21,4.21,0,0,1,.07,2.84,10.9,10.9,0,0,1-4.51,5.79,2.72,2.72,0,0,0-1.21,1.06,1.34,1.34,0,0,0,.21,1.21.74.74,0,0,0,.54.35,5.25,5.25,0,0,0,1.24-.35c.38-.14.79-.31,1.24-.5s.82-.35,1.1-.49.82-.49,1.46-.89,1.31-.85,2-1.35,1.42-1,2.13-1.53,1.3-1,1.78-1.42a19.31,19.31,0,0,1,2.3-1.74c.41-.21.72-.2,1,0a.58.58,0,0,1,.21.35c0,.29-.41.87-1.24,1.74s-1.82,1.84-3,2.88a42.48,42.48,0,0,1-3.55,2.87,13.31,13.31,0,0,1-3,1.74,6.66,6.66,0,0,1-2.52.39A9.61,9.61,0,0,1,255.86,51.33Zm3.48-12.14a14.42,14.42,0,0,0-1,1.42,10.23,10.23,0,0,0-.67,1.32,13.48,13.48,0,0,0-.53,1.49c-.17.54-.35,1.17-.54,1.88.43-.38,1-.9,1.6-1.56a9.47,9.47,0,0,0,1.53-2.06,4.9,4.9,0,0,0,.85-2.59c-.1-.5-.21-.75-.36-.75S259.77,38.62,259.34,39.19Z"/><path class="cls-9" d="M273.47,68.44a7.06,7.06,0,0,1-2.7-.56A5.88,5.88,0,0,1,268.22,65c-.15-.29-.26-.55-.36-.79a4,4,0,0,1-.21-.81,7.63,7.63,0,0,1-.07-1.17V60.35c0-1.56,0-3,.1-4.33s.25-2.89.54-4.69.68-4,1.2-6.67,1.23-6.08,2.13-10.3q.85-4,1.6-6.85c.5-1.91,1.08-3.82,1.74-5.71q1.35-4.05,2.31-6.75c.64-1.8,1.17-3.26,1.6-4.4s.78-2,1.06-2.59a6.54,6.54,0,0,1,.71-1.24c.19-.24.34-.36.46-.36h.46a2.55,2.55,0,0,1,1.28.29,1,1,0,0,1,.5.35,3,3,0,0,1,.14,1.21q0,2.83-.35,6.64t-.93,8.13c-.38,2.88-.8,5.88-1.27,9s-1,6.15-1.5,9.16-1,5.88-1.49,8.62-.9,5.22-1.28,7.42-.68,4.05-.92,5.54a23,23,0,0,0-.35,3,8.83,8.83,0,0,0,.07,1.27,1.94,1.94,0,0,1,0,.82.76.76,0,0,1-.53.46A4.44,4.44,0,0,1,273.47,68.44Z"/><path class="cls-10" d="M300.88,52.9a6.06,6.06,0,0,0-.78-2l-1.78-3.41c-.66-1.25-1.29-2.5-1.88-3.76a13.87,13.87,0,0,1-1.1-3,8,8,0,0,1,.74-5.39,11.75,11.75,0,0,1,3.66-4.23A12.57,12.57,0,0,1,304.91,29a8.39,8.39,0,0,1,5.29.71,5.17,5.17,0,0,1,1.86,1.49,4.42,4.42,0,0,1,.46,2.34,6.65,6.65,0,0,1-.45,2.7,3.22,3.22,0,0,1-1,1.35,1.15,1.15,0,0,1-.93.25.55.55,0,0,1-.42-.61,10,10,0,0,1,.11-1.13q.11-.78.21-1.71a11,11,0,0,0,.07-1.81,4,4,0,0,0-.32-1.52,2.26,2.26,0,0,0-.57-.86c-.19-.14-.42-.1-.71.11a6.18,6.18,0,0,0-1.06,1.24c-.43.62-1,1.45-1.63,2.49s-1,1.73-1.35,2.34a12.74,12.74,0,0,0-.78,1.74,6.92,6.92,0,0,0-.36,1.67c-.05.57-.07,1.25-.07,2.06s0,1.43,0,1.88a7.51,7.51,0,0,0,.21,1.42c.12.5.29,1.09.53,1.78s.57,1.62,1,2.8L310,45.58c1.29-1.09,2.33-1.95,3.1-2.59s1.36-1.09,1.74-1.35a1.79,1.79,0,0,1,.85-.39q.64,0,.54.39a2.9,2.9,0,0,1-.82,1.07l-1.81,1.7q-1.1,1-2.37,2.31-2,2.06-3.3,3.23c-.85.78-1.5,1.41-2,1.88a6.82,6.82,0,0,0-1,1.24,3.64,3.64,0,0,0-.46,1.25,6.3,6.3,0,0,1-1.25,2.91,3.35,3.35,0,0,1-2.73,1.06,1.82,1.82,0,0,1-1.49-.46,1.59,1.59,0,0,1-.36-.6,1.85,1.85,0,0,1,.36-.78l.78-1.25c.28-.45.54-.88.78-1.31A2.3,2.3,0,0,0,300.88,52.9Z"/><path class="cls-11" d="M320.9,31.74c.85,0,1.39.53,1.63,1.59a17.94,17.94,0,0,1,.36,3.87,63.83,63.83,0,0,1-.64,9.13q-.64,4.37-1.42,8.2a9.41,9.41,0,0,1-.68,2.48A2.08,2.08,0,0,1,319,58.08a4.42,4.42,0,0,1-1.14.35,8.58,8.58,0,0,1-1.45.18c-.5,0-1,0-1.46,0a4,4,0,0,1-1.13-.18l-.85-.35a30.52,30.52,0,0,1,.39-4.33q.39-2.62,1-5.58t1.38-5.85c.53-1.94,1.08-3.71,1.67-5.29a22.72,22.72,0,0,1,1.78-3.84C319.75,32.22,320.33,31.74,320.9,31.74Zm1.42-7.53-.57,0a7.88,7.88,0,0,1-.89-.15q-.47-.11-.81-.21c-.24-.07-.36-.18-.36-.32a.77.77,0,0,1,.25-.42,2.94,2.94,0,0,1,.64-.54c.26-.16.51-.33.74-.49a3.86,3.86,0,0,1,.5-.32c.52-.33.95-.6,1.28-.78a6.17,6.17,0,0,1,.85-.43,2.65,2.65,0,0,1,.71-.18c.24,0,.54,0,.92,0a6.11,6.11,0,0,1,1.21.07.48.48,0,0,1,.36.42q.06.22-.57.78c-.43.38-.91.77-1.46,1.18a13.34,13.34,0,0,1-1.63,1A3.16,3.16,0,0,1,322.32,24.21Z"/><path class="cls-12" d="M336.09,75.19c-1.42,0-2.34-.32-2.77-1a6.14,6.14,0,0,1-.64-3.23,26.56,26.56,0,0,1,.25-3.3c.17-1.26.39-2.57.68-3.94l.78-3.76q.57-2.78,1.35-6.32t1.74-7.42q1-3.87,2-7.1a36.56,36.56,0,0,1,2.1-5.33c.71-1.39,1.37-2.09,2-2.09a1.43,1.43,0,0,1,1.35.92,6.19,6.19,0,0,1,.46,2.34,29.78,29.78,0,0,1-.11,3.06,28.92,28.92,0,0,1-.39,3c-.17.9-.3,1.66-.39,2.27s-.12.9-.07.85a15.77,15.77,0,0,0,.92-1.74c.43-.87,1-1.88,1.6-3a40.58,40.58,0,0,1,2.2-3.48,15.25,15.25,0,0,1,2.8-3.06,9.59,9.59,0,0,1,2.63-1.77,3.44,3.44,0,0,1,2.2,0,3.91,3.91,0,0,1,2.2,1.35A5.59,5.59,0,0,1,360,34.79a10.44,10.44,0,0,1,.18,2.88,27.08,27.08,0,0,1-.39,2.94,23.92,23.92,0,0,1-.68,2.63,19.48,19.48,0,0,1-.67,1.84,12.66,12.66,0,0,1-1.32,2.24,23,23,0,0,1-1.95,2.38,23.87,23.87,0,0,1-2.2,2.09,12.72,12.72,0,0,1-2.06,1.46q-.42.21-.78.36a4.26,4.26,0,0,1-.82.21,10.46,10.46,0,0,1-1.17.1c-.47,0-1.09,0-1.84,0-.95,0-1.76,0-2.42,0a3.51,3.51,0,0,0-1.06.1,2.25,2.25,0,0,0-.29.93c-.09.52-.2,1.18-.32,2s-.23,1.74-.35,2.81-.23,2.16-.32,3.3q-.36,4.11-.71,6.5a14.73,14.73,0,0,1-.92,3.62,2.88,2.88,0,0,1-1.46,1.59A6.44,6.44,0,0,1,336.09,75.19ZM349,40.33c-.23.42-.58,1.09-1,2s-.92,1.88-1.42,2.94-1,2.11-1.42,3.13a25.5,25.5,0,0,0-.95,2.38l2.37-1a17.26,17.26,0,0,0,1.92-1,9.32,9.32,0,0,0,1.7-1.31,12.56,12.56,0,0,0,1.67-2,25.07,25.07,0,0,0,3.09-5.5,20.66,20.66,0,0,0,1.21-4.3,11,11,0,0,0,.11-2.77c-.1-.66-.17-1-.22-1a2.33,2.33,0,0,0-1.24.74,21.18,21.18,0,0,0-1.85,2c-.68.83-1.37,1.74-2.06,2.74S349.58,39.33,349,40.33Z"/><path class="cls-13" d="M360,51.62q-.89-3.84,2.17-10a22.14,22.14,0,0,1,4.22-6.07,13.1,13.1,0,0,1,4.72-3.09,9.34,9.34,0,0,1,4.73-.46A10.24,10.24,0,0,1,380,33.73a3.79,3.79,0,0,1-.71.28,1.21,1.21,0,0,1-.53,0,2.23,2.23,0,0,1-.64-.21c-.26-.12-.61-.29-1-.53a34.92,34.92,0,0,0-3.05,4.54c-1.05,1.8-2,3.58-2.81,5.33s-1.5,3.29-2,4.61a10.38,10.38,0,0,0-.78,2.49c0,.19.23,0,.71-.64s1.09-1.46,1.84-2.52,1.59-2.25,2.49-3.55,1.78-2.52,2.66-3.66a36.8,36.8,0,0,1,2.41-2.84c.74-.75,1.29-1.13,1.67-1.13a2.36,2.36,0,0,1,2.49,1.63,8.48,8.48,0,0,1,.14,3.19c-.14,1.38-.36,2.9-.64,4.58s-.59,3.45-.92,5.29-.57,3.62-.71,5.33c-.1.85-.17,1.62-.22,2.31a5.1,5.1,0,0,1-.14,1.17c0,.14-.25.23-.6.28a6.35,6.35,0,0,1-1.17,0,10.43,10.43,0,0,1-1.32-.18,3.38,3.38,0,0,1-1-.36,4,4,0,0,1-1.56-2.3,11.82,11.82,0,0,1-.39-3.34,30.47,30.47,0,0,1,.32-3.73c.19-1.28.4-2.41.64-3.41.1-.56.18-1,.25-1.45a6.76,6.76,0,0,0,.11-.75,7,7,0,0,0-.57.85,9.89,9.89,0,0,0-.57,1,11.61,11.61,0,0,1-.64,1.13c-1,1.62-1.76,2.92-2.45,3.91s-1.27,1.79-1.74,2.38-.89,1.06-1.24,1.42-.7.67-1,1l-1.78-.14C362.41,55.55,360.58,54.17,360,51.62Z"/><path class="cls-14" d="M388.35,55.24a4.88,4.88,0,0,1-1.35,0,2.6,2.6,0,0,1-1.07-.46,6.23,6.23,0,0,1-1-1q-.52-.64-1.17-1.56c0-1.14.1-2.28.14-3.41a28,28,0,0,1,.36-3.41,22.43,22.43,0,0,1,.89-3.52,18.49,18.49,0,0,1,1.81-3.79,14.16,14.16,0,0,1,1.95-2.84,2.41,2.41,0,0,1,1.74-.64,5.26,5.26,0,0,1,1.42.14,1,1,0,0,1,.67.74,8.13,8.13,0,0,1,.22,1.85c0,.83.05,2,.1,3.52q1.35-2.49,2.7-4.48a21.26,21.26,0,0,1,1.92-2.55,6.58,6.58,0,0,1,2-1.49,4.37,4.37,0,0,1,1.71-.57l.32,0,.46.11a2.67,2.67,0,0,1,1,.5,2,2,0,0,1,.5.95,8.84,8.84,0,0,1,.17,2v3.48c0,1.65-.09,3-.14,4a5,5,0,0,1-.21,1.64,1.14,1.14,0,0,1-.89.31,7.42,7.42,0,0,1-1.46-.07,8,8,0,0,1-1.52-.35,2.27,2.27,0,0,1-1-.6,2.79,2.79,0,0,1-.57-1.67,13.44,13.44,0,0,1,.07-2.35,20.91,20.91,0,0,1,.43-2.41c.19-.78.35-1.43.49-2a31.93,31.93,0,0,0-3.05,4,48.31,48.31,0,0,0-2.41,4.26c-.29.57-.51,1.06-.68,1.46s-.3.78-.42,1.14a7.15,7.15,0,0,0-.29,1.17A16.18,16.18,0,0,0,391.9,49a23.26,23.26,0,0,1-.75,3.73,4,4,0,0,1-1.1,2,1.32,1.32,0,0,1-.64.25C389.08,55.06,388.72,55.14,388.35,55.24Z"/><path class="cls-15" d="M403.43,51.62q-.89-3.84,2.17-10a22.35,22.35,0,0,1,4.22-6.07,13.19,13.19,0,0,1,4.72-3.09,9.34,9.34,0,0,1,4.73-.46,10.24,10.24,0,0,1,4.22,1.74,3.79,3.79,0,0,1-.71.28,1.21,1.21,0,0,1-.53,0,2.23,2.23,0,0,1-.64-.21c-.26-.12-.6-.29-1-.53a36,36,0,0,0-3.05,4.54q-1.56,2.7-2.81,5.33t-2,4.61a10.38,10.38,0,0,0-.78,2.49c0,.19.23,0,.71-.64s1.09-1.46,1.84-2.52,1.59-2.25,2.49-3.55,1.79-2.52,2.66-3.66A34.61,34.61,0,0,1,422,37.06c.73-.75,1.28-1.13,1.66-1.13a2.36,2.36,0,0,1,2.49,1.63,8.28,8.28,0,0,1,.14,3.19c-.14,1.38-.35,2.9-.64,4.58s-.59,3.45-.92,5.29-.57,3.62-.71,5.33q-.15,1.27-.21,2.31a5.47,5.47,0,0,1-.15,1.17c0,.14-.24.23-.6.28a6.28,6.28,0,0,1-1.17,0,10,10,0,0,1-1.31-.18,3.28,3.28,0,0,1-1-.36,4,4,0,0,1-1.57-2.3,11.82,11.82,0,0,1-.39-3.34,30.47,30.47,0,0,1,.32-3.73c.19-1.28.4-2.41.64-3.41.1-.56.18-1,.25-1.45a6.76,6.76,0,0,0,.11-.75,7,7,0,0,0-.57.85,9.89,9.89,0,0,0-.57,1,11.61,11.61,0,0,1-.64,1.13c-.95,1.62-1.76,2.92-2.45,3.91s-1.26,1.79-1.74,2.38a17.16,17.16,0,0,1-1.24,1.42c-.35.35-.7.67-1,1l-1.77-.14C405.86,55.55,404,54.17,403.43,51.62Z"/><path class="cls-16" d="M447.91,52.9a6.06,6.06,0,0,0-.78-2c-.52-1-1.11-2.15-1.77-3.41s-1.29-2.5-1.88-3.76a14,14,0,0,1-1.11-3,8.1,8.1,0,0,1,.75-5.39,11.75,11.75,0,0,1,3.66-4.23A12.52,12.52,0,0,1,452,29a8.4,8.4,0,0,1,5.29.71,5.36,5.36,0,0,1,1.86,1.49,4.52,4.52,0,0,1,.46,2.34,6.65,6.65,0,0,1-.45,2.7,3.3,3.3,0,0,1-1,1.35,1.16,1.16,0,0,1-.94.25.55.55,0,0,1-.41-.61,9.35,9.35,0,0,1,.1-1.13c.08-.52.15-1.09.22-1.71a12.23,12.23,0,0,0,.07-1.81,4.22,4.22,0,0,0-.32-1.52,2.26,2.26,0,0,0-.57-.86c-.19-.14-.42-.1-.71.11a5.87,5.87,0,0,0-1.06,1.24c-.43.62-1,1.45-1.64,2.49s-1,1.73-1.35,2.34a12.74,12.74,0,0,0-.78,1.74,6.9,6.9,0,0,0-.35,1.67c0,.57-.07,1.25-.07,2.06s0,1.43,0,1.88a8.47,8.47,0,0,0,.22,1.42,16.22,16.22,0,0,0,.53,1.78c.23.68.57,1.62,1,2.8L457,45.58c1.29-1.09,2.32-1.95,3.1-2.59s1.36-1.09,1.74-1.35a1.79,1.79,0,0,1,.85-.39c.43,0,.61.13.53.39a2.84,2.84,0,0,1-.81,1.07l-1.81,1.7q-1.11,1-2.37,2.31-2,2.06-3.3,3.23c-.85.78-1.5,1.41-2,1.88a7.41,7.41,0,0,0-1,1.24,4.11,4.11,0,0,0-.46,1.25,6.3,6.3,0,0,1-1.24,2.91,3.35,3.35,0,0,1-2.73,1.06c-.76,0-1.26-.15-1.49-.46a1.59,1.59,0,0,1-.36-.6,1.85,1.85,0,0,1,.36-.78c.23-.38.49-.8.78-1.25s.54-.88.78-1.31A2.39,2.39,0,0,0,447.91,52.9Z"/><path class="cls-17" d="M466.59,31.74c.85,0,1.39.53,1.63,1.59a17.94,17.94,0,0,1,.36,3.87,63.83,63.83,0,0,1-.64,9.13q-.65,4.37-1.42,8.2a9.41,9.41,0,0,1-.68,2.48,2.08,2.08,0,0,1-1.17,1.07,4.42,4.42,0,0,1-1.14.35,8.58,8.58,0,0,1-1.45.18c-.5,0-1,0-1.46,0a4,4,0,0,1-1.13-.18l-.86-.35a30.75,30.75,0,0,1,.4-4.33q.39-2.62,1-5.58t1.38-5.85c.53-1.94,1.08-3.71,1.67-5.29a22,22,0,0,1,1.78-3.84C465.44,32.22,466,31.74,466.59,31.74Zm1.28-12.21a3.62,3.62,0,0,1,.85.14,11.79,11.79,0,0,1,1.17.35,4,4,0,0,1,1,.53c.28.22.42.42.42.61a2.43,2.43,0,0,1-.21.74c-.14.36-.31.74-.5,1.14a13.18,13.18,0,0,1-.63,1.17,4.93,4.93,0,0,1-.57.78,1.2,1.2,0,0,1-1,.46,1.78,1.78,0,0,1-1.17-.6,1.68,1.68,0,0,1-.61-1,15.79,15.79,0,0,1-.1-2.24C466.52,20.21,467,19.53,467.87,19.53Z"/><path class="cls-18" d="M475.39,51.33a8.48,8.48,0,0,1-4.19-2.13,5.38,5.38,0,0,1-1.56-3.05,6.22,6.22,0,0,1,.53-3.34,9.75,9.75,0,0,1,5.26-5.07,6.87,6.87,0,0,1,3.72-.46,2.7,2.7,0,0,1,2.45,1.45,4.1,4.1,0,0,1,.07,2.84A9.72,9.72,0,0,1,480,44.8a9.9,9.9,0,0,1-2.8,2.56A2.72,2.72,0,0,0,476,48.42a1.34,1.34,0,0,0,.21,1.21.74.74,0,0,0,.53.35,5.27,5.27,0,0,0,1.25-.35l1.24-.5c.45-.19.81-.35,1.1-.49s.82-.49,1.45-.89,1.32-.85,2-1.35,1.42-1,2.13-1.53a21.34,21.34,0,0,0,1.77-1.42A20,20,0,0,1,490,41.71a.75.75,0,0,1,1,0,.58.58,0,0,1,.21.35c0,.29-.41.87-1.24,1.74s-1.82,1.84-3,2.88a44.17,44.17,0,0,1-3.55,2.87,13.31,13.31,0,0,1-2.95,1.74,6.69,6.69,0,0,1-2.52.39A9.48,9.48,0,0,1,475.39,51.33Zm3.48-12.14a12.94,12.94,0,0,0-1,1.42,9.1,9.1,0,0,0-.67,1.32,15.82,15.82,0,0,0-.54,1.49c-.16.54-.34,1.17-.53,1.88.43-.38,1-.9,1.6-1.56a9.41,9.41,0,0,0,1.52-2.06,4.85,4.85,0,0,0,.86-2.59q-.15-.75-.36-.75C479.58,38.34,479.29,38.62,478.87,39.19Z"/><path class="cls-19" d="M491.44,55.52A3.35,3.35,0,0,1,489,53.78a6.22,6.22,0,0,1-.75-3c0-.52,0-1.2.11-2s.17-1.71.32-2.66.33-1.91.56-2.88a16.22,16.22,0,0,1,.93-2.73c.66-1.56,1.23-2.84,1.7-3.83a12,12,0,0,1,1.35-2.31,4.38,4.38,0,0,1,1.24-1.14,3,3,0,0,1,1.39-.32c1.51,0,2.48.52,2.91,1.57a6,6,0,0,1,0,2.27c-.11,1.13-.26,2.33-.42,3.58s-.44,2.88-.82,4.87c0,0,.08,0,.25-.25l.57-.75.57-.78a2.48,2.48,0,0,1,.32-.42A23.58,23.58,0,0,1,503,38.27,4.53,4.53,0,0,1,505.92,37a3,3,0,0,1,2.66,1,4.85,4.85,0,0,1,.75,2.45,12.58,12.58,0,0,1-.22,2.91,13.46,13.46,0,0,0-.28,2.41v.08a.06.06,0,0,0,.07.07c.1,0,.43-.36,1-1.07a39.26,39.26,0,0,1,2.91-3.12c.47-.47.84-.85,1.1-1.14a4.34,4.34,0,0,1,.71-.64,1.51,1.51,0,0,1,.6-.25,7,7,0,0,1,.71,0,3.63,3.63,0,0,1,3.41,1.56,2.34,2.34,0,0,1,.28.82c0,.31.08.7.11,1.17s0,1.09,0,1.84V48A24.46,24.46,0,0,0,522,46.29l2.52-2.13c.82-.71,1.55-1.31,2.16-1.81a3,3,0,0,1,1.21-.74c.24,0,.4.14.5.42s-.23.62-.82,1.28-1.28,1.38-2.06,2.17S524,47,523.17,47.68A10.74,10.74,0,0,1,521.4,49a6.11,6.11,0,0,1-2.49.57,4.79,4.79,0,0,1-2.62-.68,5.9,5.9,0,0,1-1.67-1.52,4.92,4.92,0,0,1-.82-1.74,2.57,2.57,0,0,1-.07-1.32c.09-.33,0-.34-.25,0s-1,1.27-2.16,2.87c-.95,1.28-1.7,2.25-2.24,2.92a7.15,7.15,0,0,1-1.35,1.34,1.83,1.83,0,0,1-1,.36h-1.18a7.83,7.83,0,0,1-2.52-.32,3,3,0,0,1-1.52-1.31A3.6,3.6,0,0,1,501,49a11.39,11.39,0,0,1-.1-1.92,9.1,9.1,0,0,0-.07-1.77q-.15,0-.78,1.17c-.43.78-.92,1.68-1.46,2.7s-1,2-1.49,3-.75,1.62-.89,2c-.33.95-.68,1.45-1.06,1.49a6.85,6.85,0,0,1-1.64.15A9.83,9.83,0,0,1,491.44,55.52Z"/><path class="cls-20" d="M524.88,75.19c-1.42,0-2.35-.32-2.77-1a6,6,0,0,1-.64-3.23,24.76,24.76,0,0,1,.25-3.3c.16-1.26.39-2.57.67-3.94l.78-3.76q.57-2.78,1.35-6.32t1.74-7.42q1-3.87,2-7.1a35.54,35.54,0,0,1,2.09-5.33c.71-1.39,1.37-2.09,2-2.09a1.41,1.41,0,0,1,1.35.92,6,6,0,0,1,.46,2.34,27.19,27.19,0,0,1-.11,3.06,28.92,28.92,0,0,1-.39,3c-.16.9-.29,1.66-.39,2.27s-.12.9-.07.85a17.16,17.16,0,0,0,.93-1.74c.42-.87.95-1.88,1.59-3s1.38-2.3,2.2-3.48a15.29,15.29,0,0,1,2.81-3.06,9.45,9.45,0,0,1,2.63-1.77,3.44,3.44,0,0,1,2.2,0,4,4,0,0,1,2.2,1.35,5.58,5.58,0,0,1,1.06,2.34,10.44,10.44,0,0,1,.18,2.88,22.9,22.9,0,0,1-.39,2.94,26.47,26.47,0,0,1-.67,2.63c-.27.8-.49,1.42-.68,1.84a12,12,0,0,1-1.31,2.24,24.51,24.51,0,0,1-2,2.38,23.87,23.87,0,0,1-2.2,2.09,11.9,11.9,0,0,1-2.06,1.46q-.42.21-.78.36a4.15,4.15,0,0,1-.81.21,10.46,10.46,0,0,1-1.17.1c-.48,0-1.09,0-1.85,0-1,0-1.75,0-2.41,0a3.61,3.61,0,0,0-1.07.1,2.31,2.31,0,0,0-.28.93c-.1.52-.21,1.18-.32,2s-.24,1.74-.36,2.81-.22,2.16-.32,3.3q-.35,4.11-.71,6.5a13.88,13.88,0,0,1-.92,3.62,2.85,2.85,0,0,1-1.46,1.59A6.42,6.42,0,0,1,524.88,75.19ZM537.8,40.33c-.24.42-.58,1.09-1,2s-.93,1.88-1.42,2.94-1,2.11-1.42,3.13-.77,1.81-1,2.38l2.38-1a19.22,19.22,0,0,0,1.92-1,9.68,9.68,0,0,0,1.7-1.31,13.73,13.73,0,0,0,1.67-2,25.07,25.07,0,0,0,3.09-5.5,20,20,0,0,0,1.2-4.3,10.53,10.53,0,0,0,.11-2.77,3.35,3.35,0,0,0-.21-1,2.35,2.35,0,0,0-1.25.74,21.24,21.24,0,0,0-1.84,2c-.69.83-1.38,1.74-2.06,2.74S538.37,39.33,537.8,40.33Z"/><path class="cls-21" d="M553.56,55.24a4.9,4.9,0,0,1-1.35,0,2.56,2.56,0,0,1-1.06-.46,5.53,5.53,0,0,1-1-1c-.36-.43-.75-1-1.18-1.56l.15-3.41a26.1,26.1,0,0,1,.35-3.41,23.59,23.59,0,0,1,.89-3.52,18.49,18.49,0,0,1,1.81-3.79,14.16,14.16,0,0,1,2-2.84,2.41,2.41,0,0,1,1.74-.64,5.21,5.21,0,0,1,1.42.14,1,1,0,0,1,.68.74,8.89,8.89,0,0,1,.21,1.85c0,.83.06,2,.11,3.52a51,51,0,0,1,2.69-4.48,21.26,21.26,0,0,1,1.92-2.55,6.62,6.62,0,0,1,2-1.49,4.29,4.29,0,0,1,1.7-.57l.32,0,.46.11a2.67,2.67,0,0,1,1,.5,2,2,0,0,1,.5.95,8.18,8.18,0,0,1,.18,2v3.48c-.05,1.65-.1,3-.15,4a4.44,4.44,0,0,1-.21,1.64,1.14,1.14,0,0,1-.89.31,7.29,7.29,0,0,1-1.45-.07,8.07,8.07,0,0,1-1.53-.35,2.27,2.27,0,0,1-1-.6,2.79,2.79,0,0,1-.57-1.67,14.49,14.49,0,0,1,.07-2.35,20.91,20.91,0,0,1,.43-2.41c.19-.78.36-1.43.5-2a31.09,31.09,0,0,0-3.06,4c-.89,1.42-1.7,2.84-2.41,4.26-.28.57-.51,1.06-.67,1.46s-.31.78-.43,1.14a7.17,7.17,0,0,0-.28,1.17c-.07.42-.13,1-.18,1.63a23.26,23.26,0,0,1-.75,3.73,4,4,0,0,1-1.1,2,1.27,1.27,0,0,1-.64.25C554.29,55.06,553.94,55.14,553.56,55.24Z"/><path class="cls-22" d="M575.43,51.33a8.43,8.43,0,0,1-4.19-2.13,5.38,5.38,0,0,1-1.56-3.05,6.12,6.12,0,0,1,.53-3.34,9.48,9.48,0,0,1,2.09-3,9.76,9.76,0,0,1,3.16-2.06,6.92,6.92,0,0,1,3.73-.46,2.71,2.71,0,0,1,2.45,1.45,4.16,4.16,0,0,1,.07,2.84A10.1,10.1,0,0,1,580,44.8a9.93,9.93,0,0,1-2.81,2.56,2.74,2.74,0,0,0-1.2,1.06,1.29,1.29,0,0,0,.21,1.21c.19.24.36.35.53.35a5.12,5.12,0,0,0,1.24-.35c.38-.14.8-.31,1.25-.5s.81-.35,1.1-.49.81-.49,1.45-.89,1.31-.85,2-1.35,1.42-1,2.13-1.53a21.66,21.66,0,0,0,1.78-1.42A19.12,19.12,0,0,1,590,41.71a.75.75,0,0,1,1,0,.58.58,0,0,1,.21.35c0,.29-.42.87-1.24,1.74s-1.83,1.84-3,2.88a42.48,42.48,0,0,1-3.55,2.87,13.29,13.29,0,0,1-2.94,1.74,6.72,6.72,0,0,1-2.52.39A9.48,9.48,0,0,1,575.43,51.33Zm3.48-12.14a12.94,12.94,0,0,0-1,1.42,10.31,10.31,0,0,0-.68,1.32,13.48,13.48,0,0,0-.53,1.49c-.17.54-.34,1.17-.53,1.88.42-.38,1-.9,1.59-1.56a9.47,9.47,0,0,0,1.53-2.06,4.81,4.81,0,0,0,.85-2.59c-.09-.5-.21-.75-.35-.75S579.33,38.62,578.91,39.19Z"/><path class="cls-23" d="M604,68.2h2.37a3.17,3.17,0,0,1,1.68.42,2.72,2.72,0,0,1,1,1.42,9.09,9.09,0,0,1,.36,2.92,13.52,13.52,0,0,1-.33,3.05,3.61,3.61,0,0,1-.89,1.92,2.24,2.24,0,0,1-1.15.42,9.12,9.12,0,0,1-1.57.14,1.68,1.68,0,0,1-.68-.07,8.94,8.94,0,0,0-1.26-.28,2.14,2.14,0,0,1-1.68-.89,3.65,3.65,0,0,1-.47-2A9.14,9.14,0,0,1,601.7,73a11.42,11.42,0,0,1,.72-2,15.45,15.45,0,0,1,.86-1.64C603.56,68.86,603.8,68.48,604,68.2Zm10.56-55.95a7.84,7.84,0,0,1,2.66.36,2.84,2.84,0,0,1,1.39,1,3.27,3.27,0,0,1,.53,1.5,16.69,16.69,0,0,1,.1,2c0,1.66,0,3.1,0,4.33s-.07,2.38-.14,3.44-.18,2.13-.32,3.2-.35,2.28-.61,3.65-.56,2.95-.92,4.73-.79,3.91-1.31,6.42c-.67,3.27-1.21,6-1.64,8.27s-.79,4.11-1.1,5.58a25.52,25.52,0,0,1-.92,3.47,5.52,5.52,0,0,1-1.1,2,3.57,3.57,0,0,1-1.6,1,17.23,17.23,0,0,1-2.45.49h-.28A3.83,3.83,0,0,1,604.5,63a5.39,5.39,0,0,1-1.1-1.28,8.81,8.81,0,0,1-.67-3.66,51.46,51.46,0,0,1,.21-6.32c.21-2.43.54-5.1,1-8s1-5.79,1.6-8.73,1.29-5.77,2-8.52,1.49-5.17,2.27-7.28a27.65,27.65,0,0,1,2.38-5.07Q613.41,12.25,614.55,12.25Z"/><path class="cls-24" d="M2.27,17.78c-.21-.55-.41-1.19-.61-1.9a15.31,15.31,0,0,1-.43-2.31,11.61,11.61,0,0,1,0-2.57,4.52,4.52,0,0,1,.64-2.08,1.81,1.81,0,0,1,1.63-.76A5.9,5.9,0,0,0,4.67,8,1.25,1.25,0,0,1,5.3,8a7.48,7.48,0,0,1,1.43.36,2,2,0,0,1,1,.62,4.59,4.59,0,0,1,.61,2.22,18.39,18.39,0,0,1,0,3.39,11.36,11.36,0,0,1-.65,3.15,2.86,2.86,0,0,1-1.1,1.42A2.46,2.46,0,0,1,5,19.43L2.8,19.12C2.66,18.79,2.48,18.34,2.27,17.78Zm2.15,61.7a35.38,35.38,0,0,1-1.63-5.89Q2.07,70,1.51,65.31C1.14,62.21.83,59,.59,55.7S.18,49.14.08,45.91,0,39.72.05,37a66.42,66.42,0,0,1,.49-7,11.06,11.06,0,0,1,1-3.92A5.44,5.44,0,0,1,2.7,24.88a3,3,0,0,1,2.17-.25l.26,0a14.89,14.89,0,0,1,2.18.87A3.37,3.37,0,0,1,8.67,26.8a6.9,6.9,0,0,1,.79,2.29A36.64,36.64,0,0,1,9.93,33q.18,2.48.39,6.26t.6,9.29c.2,2.82.36,5.23.5,7.22s.24,3.76.32,5.3.14,2.9.16,4.09,0,2.37-.06,3.55-.13,2.44-.25,3.79-.26,2.94-.44,4.76a19.39,19.39,0,0,1-.31,2.13A3.72,3.72,0,0,1,10.19,81a2.44,2.44,0,0,1-1.37.87,6,6,0,0,1-2.47,0C5.66,81.79,5,81,4.42,79.48Z"/></g></g></svg>